<?xml version="1.0" encoding="UTF-8" standalone="no"?>
<!-- Created with Inkscape (http://www.inkscape.org/) -->

<svg
   xmlns:dc="http://purl.org/dc/elements/1.1/"
   xmlns:cc="http://creativecommons.org/ns#"
   xmlns:rdf="http://www.w3.org/1999/02/22-rdf-syntax-ns#"
   xmlns:svg="http://www.w3.org/2000/svg"
   xmlns="http://www.w3.org/2000/svg"
   xmlns:sodipodi="http://sodipodi.sourceforge.net/DTD/sodipodi-0.dtd"
   xmlns:inkscape="http://www.inkscape.org/namespaces/inkscape"
   width="79.062439"
   height="89.038437"
   id="svg3313"
   version="1.1"
   inkscape:version="0.48.1 r9760"
   sodipodi:docname="Neues Dokument 2">
  <defs
     id="defs3315" />
  <sodipodi:namedview
     id="base"
     pagecolor="#ffffff"
     bordercolor="#666666"
     borderopacity="1.0"
     inkscape:pageopacity="0.0"
     inkscape:pageshadow="2"
     inkscape:zoom="1"
     inkscape:cx="676.64495"
     inkscape:cy="-129.76649"
     inkscape:document-units="px"
     inkscape:current-layer="layer1"
     showgrid="false"
     fit-margin-top="0"
     fit-margin-left="0"
     fit-margin-right="0"
     fit-margin-bottom="0"
     inkscape:window-width="1680"
     inkscape:window-height="992"
     inkscape:window-x="0"
     inkscape:window-y="26"
     inkscape:window-maximized="1" />
  <metadata
     id="metadata3318">
    <rdf:RDF>
      <cc:Work
         rdf:about="">
        <dc:format>image/svg+xml</dc:format>
        <dc:type
           rdf:resource="http://purl.org/dc/dcmitype/StillImage" />
        <dc:title></dc:title>
      </cc:Work>
    </rdf:RDF>
  </metadata>
  <g
     inkscape:label="Ebene 1"
     inkscape:groupmode="layer"
     id="layer1"
     transform="translate(326.64495,-313.55725)">
    <g
       id="g3383"
       transform="translate(3.82374,784.50882)"
       inkscape:export-filename="/var/www/ontowiki.net/mockup/utils/layout/images/logo-ontowiki.png"
       inkscape:export-xdpi="89.961136"
       inkscape:export-ydpi="89.961136">
      <g
         id="g3358">
        <path
           style="fill:#ed7d09;fill-opacity:1;fill-rule:nonzero;stroke:none"
           d="m -323.75,596.71875 c -0.98538,0.12224 -1.98977,0.44068 -2.90625,0.96875 -0.91612,0.52773 -1.68372,1.24007 -2.28125,2.03125 -0.59753,0.79118 -1.03061,1.68127 -1.28125,2.625 -0.25064,0.94373 -0.31205,1.92088 -0.1875,2.90625 0.12455,0.98537 0.4407,1.95889 0.96875,2.875 0.52774,0.91647 1.21175,1.68093 2,2.28125 0.78825,0.60032 1.68518,1.05821 2.625,1.3125 0.93982,0.25429 1.92381,0.30911 2.90625,0.1875 0.98244,-0.12161 1.95887,-0.44135 2.875,-0.96875 0.91651,-0.52809 1.68082,-1.20874 2.28125,-2 0.60043,-0.79126 1.02689,-1.68136 1.28125,-2.625 0.25436,-0.94364 0.34043,-1.921 0.21875,-2.90625 -0.12168,-0.98525 -0.44104,-1.99016 -0.96875,-2.90625 -0.39578,-0.68707 -0.88819,-1.26928 -1.4375,-1.78125 -0.54931,-0.51197 -1.1548,-0.92619 -1.8125,-1.25 -0.6577,-0.32381 -1.37281,-0.56491 -2.09375,-0.6875 -0.72094,-0.12259 -1.44846,-0.15418 -2.1875,-0.0625 z"
           id="path3243"
           transform="translate(0,-1040.6378)"
           inkscape:connector-curvature="0" />
        <path
           style="font-size:medium;font-style:normal;font-variant:normal;font-weight:normal;font-stretch:normal;text-indent:0;text-align:start;text-decoration:none;line-height:normal;letter-spacing:normal;word-spacing:normal;text-transform:none;direction:ltr;block-progression:tb;writing-mode:lr-tb;text-anchor:start;color:#000000;fill:#ed7d09;fill-opacity:1;stroke:none;stroke-width:5.9134016;marker:none;visibility:visible;display:inline;overflow:visible;enable-background:accumulate;font-family:AlArabiya;-inkscape-font-specification:AlArabiya"
           d="m -313.75,-436.9503 c 0.13898,2.02449 -0.40308,4.03345 -1.53125,5.71875 l 20.1875,5.4375 c -0.014,-0.20585 -0.0312,-0.41569 -0.0312,-0.625 0,-1.88585 0.57729,-3.63708 1.5625,-5.09375 l -20.1875,-5.4375 z"
           id="path3328"
           inkscape:connector-curvature="0" />
        <path
           style="font-size:medium;font-style:normal;font-variant:normal;font-weight:normal;font-stretch:normal;text-indent:0;text-align:start;text-decoration:none;line-height:normal;letter-spacing:normal;word-spacing:normal;text-transform:none;direction:ltr;block-progression:tb;writing-mode:lr-tb;text-anchor:start;color:#000000;fill:#ed7d09;fill-opacity:1;stroke:none;stroke-width:5.9134016;marker:none;visibility:visible;display:inline;overflow:visible;enable-background:accumulate;font-family:AlArabiya;-inkscape-font-specification:AlArabiya"
           d="m -317.75,-428.7628 c -0.17532,0.11796 -0.34543,0.23668 -0.53125,0.34375 -1.62411,0.93497 -3.41619,1.31122 -5.15625,1.1875 l 5.40625,20.21875 c 1.45235,-0.97076 3.18601,-1.5625 5.0625,-1.5625 0.20931,0 0.41915,0.0174 0.625,0.0312 l -5.40625,-20.2187 z"
           id="path3324"
           inkscape:connector-curvature="0" />
      </g>
      <g
         id="g3348">
        <path
           style="fill:#85b818;fill-opacity:1;fill-rule:nonzero;stroke:none"
           d="m -295.875,569.6875 c -2.57729,0.0489 -5.07207,1.41372 -6.46875,3.8125 -2.1281,3.65503 -0.90508,8.31069 2.75,10.4375 3.6551,2.12816 8.34053,0.90522 10.46875,-2.75 2.12809,-3.655 0.87404,-8.34045 -2.78125,-10.46875 -0.91375,-0.53203 -1.89037,-0.84227 -2.875,-0.96875 -0.36924,-0.0474 -0.72557,-0.0695 -1.09375,-0.0625 z"
           id="path3154"
           transform="translate(0,-1040.6378)"
           inkscape:connector-curvature="0" />
        <path
           style="font-size:medium;font-style:normal;font-variant:normal;font-weight:normal;font-stretch:normal;text-indent:0;text-align:start;text-decoration:none;line-height:normal;letter-spacing:normal;word-spacing:normal;text-transform:none;direction:ltr;block-progression:tb;writing-mode:lr-tb;text-anchor:start;color:#000000;fill:#85b818;fill-opacity:1;stroke:none;stroke-width:5.9134016;marker:none;visibility:visible;display:inline;overflow:visible;enable-background:accumulate;font-family:AlArabiya;-inkscape-font-specification:AlArabiya"
           d="m -303.9375,-459.29405 -14.8125,14.8125 c 1.54715,0.77247 2.88391,1.98174 3.8125,3.59375 0.11532,0.20019 0.21398,0.41998 0.3125,0.625 l 14.84375,-14.84375 c -0.18795,-0.0928 -0.37868,-0.20547 -0.5625,-0.3125 -1.61682,-0.94079 -2.83167,-2.30782 -3.59375,-3.875 z"
           id="path3308"
           inkscape:connector-curvature="0" />
        <path
           style="font-size:medium;font-style:normal;font-variant:normal;font-weight:normal;font-stretch:normal;text-indent:0;text-align:start;text-decoration:none;line-height:normal;letter-spacing:normal;word-spacing:normal;text-transform:none;direction:ltr;block-progression:tb;writing-mode:lr-tb;text-anchor:start;color:#000000;fill:#85b818;fill-opacity:1;stroke:none;stroke-width:5.9134016;marker:none;visibility:visible;display:inline;overflow:visible;enable-background:accumulate;font-family:AlArabiya;-inkscape-font-specification:AlArabiya"
           d="m -290.65625,-455.73155 c -1.67461,1.12556 -3.67449,1.6619 -5.6875,1.53125 l 5.28125,20.1875 c 1.44956,-0.97046 3.19212,-1.53125 5.0625,-1.53125 0.21974,0 0.44034,0.0159 0.65625,0.0312 l -5.3125,-20.21875 z"
           id="path3306"
           inkscape:connector-curvature="0" />
      </g>
      <g
         id="g3353">
        <path
           style="fill:#b92182;fill-opacity:1;fill-rule:nonzero;stroke:none"
           d="m -259.03125,579.59375 c -4.22986,0 -7.65625,3.42639 -7.65625,7.65625 0,4.22986 3.42654,7.625 7.65625,7.625 4.22971,0 7.625,-3.39514 7.625,-7.625 0,-4.22986 -3.39514,-7.65625 -7.625,-7.65625 z"
           id="path3146"
           transform="translate(0,-1040.6378)"
           inkscape:connector-curvature="0" />
        <path
           style="font-size:medium;font-style:normal;font-variant:normal;font-weight:normal;font-stretch:normal;text-indent:0;text-align:start;text-decoration:none;line-height:normal;letter-spacing:normal;word-spacing:normal;text-transform:none;direction:ltr;block-progression:tb;writing-mode:lr-tb;text-anchor:start;color:#000000;fill:#b92182;fill-opacity:1;stroke:none;stroke-width:5.9134016;marker:none;visibility:visible;display:inline;overflow:visible;enable-background:accumulate;font-family:AlArabiya;-inkscape-font-specification:AlArabiya"
           d="m -286.65625,-463.8878 c 0.11619,1.7531 -0.26984,3.55775 -1.21875,5.1875 -0.10052,0.17265 -0.20258,0.33651 -0.3125,0.5 l 20.0625,5.40625 c -0.0126,-0.19576 -0.0312,-0.39487 -0.0312,-0.59375 0,-1.88585 0.57729,-3.63708 1.5625,-5.09375 l -20.0625,-5.40625 z"
           id="path3318"
           inkscape:connector-curvature="0" />
        <path
           style="font-size:medium;font-style:normal;font-variant:normal;font-weight:normal;font-stretch:normal;text-indent:0;text-align:start;text-decoration:none;line-height:normal;letter-spacing:normal;word-spacing:normal;text-transform:none;direction:ltr;block-progression:tb;writing-mode:lr-tb;text-anchor:start;color:#000000;fill:#b92182;fill-opacity:1;stroke:none;stroke-width:5.9134016;marker:none;visibility:visible;display:inline;overflow:visible;enable-background:accumulate;font-family:AlArabiya;-inkscape-font-specification:AlArabiya"
           d="M -267.21875,-449.3878 -282,-434.60655 c 1.8202,0.89093 3.29269,2.36953 4.1875,4.1875 l 14.75,-14.78125 c -1.80877,-0.8944 -3.26742,-2.37554 -4.15625,-4.1875 z"
           id="path3314"
           inkscape:connector-curvature="0" />
      </g>
      <g
         id="g3375">
        <path
           style="fill:#005a9b;fill-opacity:1;fill-rule:nonzero;stroke:none"
           d="m -312.96875,633.53125 c -4.22971,0 -7.65625,3.39514 -7.65625,7.625 0,4.22986 3.42639,7.65625 7.65625,7.65625 4.22986,0 7.65625,-3.42639 7.65625,-7.65625 0,-4.22986 -3.42654,-7.625 -7.65625,-7.625 z"
           id="path3150"
           transform="translate(0,-1040.6378)"
           inkscape:connector-curvature="0" />
        <path
           style="fill:#005a9b;fill-opacity:1;fill-rule:nonzero;stroke:none"
           d="m -276.40625,643.4375 c -2.5773,0.0428 -5.0721,1.38252 -6.46875,3.78125 -2.12809,3.655 -0.90528,8.34049 2.75,10.46875 3.65518,2.12819 8.34047,0.87408 10.46875,-2.78125 2.12812,-3.65505 0.9049,-8.31079 -2.75,-10.4375 l -0.0312,0 c -0.91378,-0.53204 -1.89037,-0.84214 -2.875,-0.96875 -0.36924,-0.0475 -0.72556,-0.0686 -1.09375,-0.0625 z"
           id="path3158"
           transform="translate(0,-1040.6378)"
           inkscape:connector-curvature="0" />
        <path
           style="fill:#005a9b;fill-opacity:1;fill-rule:nonzero;stroke:none"
           d="m -286,606.5625 c -4.22985,0 -7.65625,3.42639 -7.65625,7.65625 0,4.22986 3.42655,7.625 7.65625,7.625 4.22971,0 7.625,-3.39514 7.625,-7.625 0,-4.22986 -3.39514,-7.65625 -7.625,-7.65625 z"
           id="path3142"
           transform="translate(0,-1040.6378)"
           inkscape:connector-curvature="0" />
        <path
           style="font-size:medium;font-style:normal;font-variant:normal;font-weight:normal;font-stretch:normal;text-indent:0;text-align:start;text-decoration:none;line-height:normal;letter-spacing:normal;word-spacing:normal;text-transform:none;direction:ltr;block-progression:tb;writing-mode:lr-tb;text-anchor:start;color:#000000;fill:#005a9b;fill-opacity:1;stroke:none;stroke-width:5.9134016;marker:none;visibility:visible;display:inline;overflow:visible;enable-background:accumulate;font-family:AlArabiya;-inkscape-font-specification:AlArabiya"
           d="m -280.96875,-418.8253 c -1.44525,0.96168 -3.17006,1.53125 -5.03125,1.53125 -0.22013,0 -0.43996,-0.0158 -0.65625,-0.0312 l 5.34375,20.21875 c 1.67873,-1.1148 3.68191,-1.66535 5.6875,-1.53125 l -5.34375,-20.1875 z"
           id="path3344"
           inkscape:connector-curvature="0" />
        <path
           style="font-size:medium;font-style:normal;font-variant:normal;font-weight:normal;font-stretch:normal;text-indent:0;text-align:start;text-decoration:none;line-height:normal;letter-spacing:normal;word-spacing:normal;text-transform:none;direction:ltr;block-progression:tb;writing-mode:lr-tb;text-anchor:start;color:#000000;fill:#005a9b;fill-opacity:1;stroke:none;stroke-width:5.9134016;marker:none;visibility:visible;display:inline;overflow:visible;enable-background:accumulate;font-family:AlArabiya;-inkscape-font-specification:AlArabiya"
           d="m -294.1875,-422.41905 -14.78125,14.78125 c 1.82058,0.88761 3.29444,2.3724 4.1875,4.1875 l 14.75,-14.78125 c -1.80877,-0.8944 -3.26742,-2.37554 -4.15625,-4.1875 z"
           id="path3338"
           inkscape:connector-curvature="0" />
        <path
           style="font-size:medium;font-style:normal;font-variant:normal;font-weight:normal;font-stretch:normal;text-indent:0;text-align:start;text-decoration:none;line-height:normal;letter-spacing:normal;word-spacing:normal;text-transform:none;direction:ltr;block-progression:tb;writing-mode:lr-tb;text-anchor:start;color:#000000;fill:#005a9b;fill-opacity:1;stroke:none;stroke-width:5.9134016;marker:none;visibility:visible;display:inline;overflow:visible;enable-background:accumulate;font-family:AlArabiya;-inkscape-font-specification:AlArabiya"
           d="m -303.875,-400.0753 c 0.0135,0.20226 0.0312,0.38805 0.0312,0.59375 0,1.88585 -0.57729,3.66833 -1.5625,5.125 l 20.03125,5.40625 c -0.12168,-1.75311 0.26984,-3.55775 1.21875,-5.1875 0.10686,-0.18354 0.22617,-0.35796 0.34375,-0.53125 l -20.0625,-5.40625 z"
           id="path3334"
           inkscape:connector-curvature="0" />
      </g>
    </g>
  </g>
</svg>
