<?xml version="1.0" encoding="UTF-8" standalone="no"?>
<!-- Created with Inkscape (http://www.inkscape.org/) -->
<svg
   xmlns:dc="http://purl.org/dc/elements/1.1/"
   xmlns:cc="http://creativecommons.org/ns#"
   xmlns:rdf="http://www.w3.org/1999/02/22-rdf-syntax-ns#"
   xmlns:svg="http://www.w3.org/2000/svg"
   xmlns="http://www.w3.org/2000/svg"
   xmlns:sodipodi="http://sodipodi.sourceforge.net/DTD/sodipodi-0.dtd"
   xmlns:inkscape="http://www.inkscape.org/namespaces/inkscape"
   id="svg2"
   sodipodi:version="0.32"
   inkscape:version="0.46"
   width="64"
   height="64"
   xml:space="preserve"
   sodipodi:docname="context.svg"
   version="1.0"
   inkscape:output_extension="org.inkscape.output.svg.inkscape"
   inkscape:export-filename="/var/www/ontowiki-project/ontowiki/src/extensions/themes/silverblue/images/icons/context.png"
   inkscape:export-xdpi="22.5"
   inkscape:export-ydpi="22.5"><metadata
     id="metadata7"><rdf:RDF><cc:Work
         rdf:about=""><dc:format>image/svg+xml</dc:format><dc:type
           rdf:resource="http://purl.org/dc/dcmitype/StillImage" /></cc:Work></rdf:RDF></metadata><defs
     id="defs5"><inkscape:perspective
   sodipodi:type="inkscape:persp3d"
   inkscape:vp_x="0 : 526.18109 : 1"
   inkscape:vp_y="0 : 1000 : 0"
   inkscape:vp_z="744.09448 : 526.18109 : 1"
   inkscape:persp3d-origin="372.04724 : 350.78739 : 1"
   id="perspective9" /><clipPath
   clipPathUnits="userSpaceOnUse"
   id="clipPath17"><path
     d="M 0,595.276 L 841.89,595.276 L 841.89,0 L 0,0 L 0,595.276 z"
     id="path19" /></clipPath>

</defs><sodipodi:namedview
     inkscape:window-height="976"
     inkscape:window-width="1280"
     inkscape:pageshadow="2"
     inkscape:pageopacity="0.0"
     guidetolerance="10.0"
     gridtolerance="10.0"
     objecttolerance="10.0"
     borderopacity="1.0"
     bordercolor="#666666"
     pagecolor="#ffffff"
     id="base"
     showgrid="false"
     inkscape:zoom="4.127855"
     inkscape:cx="71.44921"
     inkscape:cy="-20.108358"
     inkscape:window-x="0"
     inkscape:window-y="0"
     inkscape:current-layer="g11" /><g
     id="g11"
     inkscape:groupmode="layer"
     inkscape:label="ontowiki_logo_RGB"
     transform="matrix(1.25,0,0,-1.25,-6.0232703,739.41112)"><path
       style="fill:#ffffff;fill-opacity:1;fill-rule:evenodd;stroke:#000000;stroke-width:0.79489899;stroke-linecap:butt;stroke-linejoin:miter;stroke-miterlimit:4;stroke-dasharray:none;stroke-opacity:1"
       d="M 29.576905,591.13145 C 25.961267,591.13145 23.021717,588.22674 23.001795,584.64174 C 21.011325,583.06427 19.008075,581.50306 17.012224,579.93303 C 16.2233,580.26606 15.34918,580.44538 14.438296,580.44538 C 10.810326,580.44538 7.8631857,577.52093 7.8631857,573.91906 C 7.8631857,571.41391 9.2884187,569.24247 11.376417,568.14906 C 11.847569,564.97263 12.305866,561.79737 12.767071,558.62187 C 11.555625,557.43804 10.803078,555.7816 10.803078,553.96195 C 10.803078,550.36009 13.738019,547.44785 17.365987,547.44785 C 18.776769,547.44785 20.088671,547.89123 21.159789,548.64331 C 23.571839,547.66426 25.983367,546.68449 28.393629,545.70342 C 29.095196,542.84934 31.683727,540.72635 34.773559,540.72635 C 38.401528,540.72635 41.348668,543.65079 41.348668,547.25266 C 41.348668,549.93869 39.709153,552.24186 37.371886,553.24223 C 36.978692,555.82456 36.590326,558.40553 36.200809,560.98842 C 37.771808,562.18111 38.786936,564.05923 38.786937,566.17287 C 38.786937,566.58938 38.740198,566.98566 38.66495,567.38054 C 39.834039,568.19475 41.094548,568.97462 41.89761,569.93008 C 42.74131,570.75745 43.660591,571.48488 44.605726,572.18684 C 45.177628,572.0254 45.775124,571.93067 46.398937,571.93067 C 50.026907,571.93067 52.974048,574.85512 52.974047,578.45698 C 52.974047,582.05885 50.026907,584.98329 46.398937,584.98329 C 45.079204,584.98329 43.854718,584.59981 42.824713,583.93421 C 40.457165,584.8978 38.078917,585.87691 35.71286,586.89849 C 34.775634,589.36705 32.389913,591.13145 29.576905,591.13145 z M 34.834552,580.71374 C 36.505385,580.01829 38.177393,579.32323 39.848225,578.62777 C 39.84674,578.57074 39.836027,578.51436 39.836027,578.45698 C 39.836027,577.71753 39.961152,577.00943 40.189789,576.34661 C 38.446991,574.92855 36.699338,573.50731 34.956539,572.08925 C 34.796421,572.16246 34.635325,572.22395 34.468591,572.28444 C 34.113579,574.62899 33.762313,576.97854 33.407302,579.3231 C 33.95268,579.71395 34.432548,580.17873 34.834552,580.71374 z M 25.880693,579.2133 C 26.356182,578.89247 26.876559,578.62182 27.42993,578.43258 C 27.778791,576.12935 28.130159,573.83134 28.47902,571.52811 C 28.291133,571.39878 28.115242,571.26093 27.942276,571.11335 C 25.629835,572.01528 23.325847,572.91954 21.013404,573.82147 C 21.013905,573.8546 21.013404,573.88581 21.013404,573.91906 C 21.013404,574.37344 20.968395,574.82045 20.879218,575.24872 C 22.547497,576.56901 24.212415,577.89301 25.880693,579.2133 z M 18.012519,568.45404 C 20.567678,567.45849 23.128006,566.46704 25.685513,565.47755 C 25.715071,565.1992 25.768174,564.92706 25.831898,564.66023 C 23.896553,563.08343 21.960652,561.50394 20.025308,559.92713 C 19.572822,560.12625 19.097265,560.27252 18.598058,560.36629 C 18.221701,562.95627 17.852133,565.54688 17.475776,568.13687 C 17.661643,568.23322 17.837606,568.34107 18.012519,568.45404 z M 29.833078,560.09791 C 29.972032,560.04402 30.104477,559.98391 30.247834,559.93933 C 30.607638,557.56233 30.973716,555.18008 31.33352,552.80308 C 30.795551,552.47346 30.3023,552.07224 29.881872,551.6076 C 27.902025,552.41203 25.920943,553.21852 23.941097,554.02295 C 23.937437,554.41808 23.890629,554.8064 23.819109,555.18183 C 25.822914,556.81596 27.829274,558.46379 29.833078,560.09791 z"
       id="path2478" /></g></svg>